M48
INCH
T01C0.0191
T02C0.032
T03C0.0354
T04C0.1575
%
T01
X+015937Y+026937
X+011937Y+026937
X+014687Y+019437
X+017187Y+019812
X+019187Y+023187
X+019937Y+026937
X+023937Y+026937
X+024187Y+024187
X+023187Y+023187
X+026687Y+019562
X+027687Y+017562
X+029687Y+019687
X+031187Y+019687
X+030687Y+017562
X+031687Y+014187
X+032687Y+013687
X+035312Y+013187
X+037812Y+013187
X+037812Y+017437
X+035312Y+017437
X+034187Y+019062
X+028187Y+013687
X+025187Y+013687
X+024187Y+011437
X+024687Y+011062
X+025312Y+010312
X+026312Y+009937
X+027437Y+009562
X+028812Y+009562
X+029812Y+009937
X+030812Y+009562
X+030437Y+011062
X+030937Y+011437
X+032562Y+009937
X+023687Y+010562
X+023187Y+011437
X+022187Y+011062
X+021187Y+011312
X+020687Y+010187
X+021687Y+009812
X+022687Y+009437
X+019187Y+010937
X+016812Y+010937
X+016187Y+010937
X+015812Y+010187
X+014812Y+009812
X+013312Y+009562
X+013312Y+008812
X+012312Y+010562
X+011812Y+010937
X+010812Y+011937
X+009812Y+012312
X+008937Y+013937
X+005937Y+013937
X+005937Y+016937
X+008937Y+016937
X+011250Y+017187
X+014187Y+013687
X+016312Y+014187
X+014312Y+011312
X+011250Y+009000
X+024187Y+017187
X+027937Y+026937
X+031937Y+026937
T02
X+026437Y+021687
X+026438Y+022687
X+027687Y+025187
X+029687Y+025187
X+030937Y+025188
X+031937Y+025187
X+017187Y+022687
X+017186Y+021687
X+012438Y+015937
X+012437Y+014937
X+007936Y+021687
X+007937Y+022687
T03
X+014187Y+012437
X+015187Y+012437
X+016187Y+012437
X+017187Y+012437
X+018187Y+012437
X+019187Y+012437
X+020187Y+012437
X+021187Y+012437
X+022187Y+012437
X+023187Y+012437
X+024187Y+012437
X+025187Y+012437
X+026187Y+012437
X+027187Y+012437
X+028187Y+012437
X+029187Y+012437
X+029187Y+018437
X+028187Y+018437
X+027187Y+018437
X+026187Y+018437
X+025187Y+018437
X+024187Y+018437
X+023187Y+018437
X+022187Y+018437
X+021187Y+018437
X+020187Y+018437
X+019187Y+018437
X+018187Y+018437
X+017187Y+018437
X+016187Y+018437
X+015187Y+018437
X+014187Y+018437
X+014437Y+020687
X+015437Y+020687
X+013437Y+020687
X+012437Y+020687
X+011437Y+020687
X+010437Y+020687
X+009437Y+020687
X+009437Y+023687
X+010437Y+023687
X+011437Y+023687
X+012437Y+023687
X+013437Y+023687
X+014437Y+023687
X+015437Y+023687
X+018687Y+023687
X+019687Y+023687
X+020687Y+023687
X+021687Y+023687
X+022687Y+023687
X+023687Y+023687
X+024687Y+023687
X+027687Y+023687
X+028687Y+023687
X+029687Y+023687
X+030687Y+023687
X+031687Y+023687
X+032687Y+023687
X+033687Y+023687
X+034687Y+023687
X+034687Y+020687
X+033687Y+020687
X+032687Y+020687
X+031687Y+020687
X+030687Y+020687
X+029687Y+020687
X+028687Y+020687
X+027687Y+020687
X+024687Y+020687
X+023687Y+020687
X+022687Y+020687
X+021687Y+020687
X+020687Y+020687
X+019687Y+020687
X+018687Y+020687
T04
X+006693Y+024803
X+036890Y+024803
T00
M30
