G04 DipTrace 2.4.0.2*
%INTop.gbr*%
%MOIN*%
%ADD13C,0.012*%
%ADD14C,0.04*%
%ADD15C,0.025*%
%ADD16C,0.02*%
%ADD17C,0.068*%
%ADD18R,0.063X0.4134*%
%ADD19R,0.0591X0.0591*%
%ADD20C,0.0591*%
%FSLAX44Y44*%
G04*
G70*
G90*
G75*
G01*
%LNTop*%
%LPD*%
X9812Y12312D2*
D13*
Y6187D1*
X32812D2*
Y9187D1*
X30937Y11062D1*
Y11437D1*
X24187D2*
Y12437D1*
X23187D2*
Y11437D1*
X10812Y11937D2*
Y6187D1*
X22187Y12437D2*
Y11062D1*
X32562Y9937D2*
X33812Y8687D1*
Y6187D1*
X21187Y12437D2*
Y11312D1*
X14312D2*
Y8937D1*
X13812Y8437D1*
Y6187D1*
X20812D2*
Y8687D1*
X20187Y9312D1*
Y12437D1*
X19187D2*
Y10937D1*
X16812D2*
Y6187D1*
X17812D2*
Y8687D1*
X18187Y9062D1*
Y12437D1*
X19812Y6187D2*
Y8812D1*
X19687Y8937D1*
Y17062D1*
X19187Y17562D1*
Y18437D1*
X15812Y6187D2*
Y10187D1*
X20687D2*
Y17062D1*
X20187Y17562D1*
Y18437D1*
X12812Y6187D2*
Y8437D1*
X12312Y8937D1*
Y10562D1*
X23687D2*
Y16812D1*
X23187Y17312D1*
Y18437D1*
Y21187D1*
X23687Y21687D1*
Y23687D1*
X14812Y6187D2*
Y9812D1*
X21687D2*
Y16937D1*
X21187Y17437D1*
Y18437D1*
Y21187D1*
X22687Y22687D1*
Y23687D1*
X18812Y6187D2*
Y8937D1*
X18687Y9062D1*
Y13647D1*
Y18812D1*
X20187Y20312D1*
Y21187D1*
X20687Y21687D1*
Y23687D1*
X18687Y13647D2*
X17772D1*
X17187Y13062D1*
Y12437D1*
X11812Y6187D2*
Y10937D1*
X16187D2*
Y11437D1*
X16687Y11937D1*
Y16062D1*
X18187Y17562D1*
Y18437D1*
Y19062D1*
X19187Y20062D1*
Y21187D1*
X19687Y21687D1*
Y23687D1*
X17187Y19812D2*
Y18437D1*
X31687Y20687D2*
Y14187D1*
X16312D2*
Y12562D1*
X16187Y12437D1*
X14687Y19437D2*
Y14187D1*
X15187Y13687D1*
Y12437D1*
X34187Y19062D2*
Y22437D1*
X33687Y22937D1*
Y23687D1*
X31187Y19687D2*
Y21437D1*
X31687Y21937D1*
Y23687D1*
X28687D2*
Y23062D1*
X25687Y20062D1*
Y17437D1*
X25187Y16937D1*
Y13687D1*
X14187D2*
Y12437D1*
X26187D2*
Y11187D1*
X25312Y10312D1*
X30812Y9562D2*
Y6187D1*
X26187Y12437D2*
Y16937D1*
X26687Y17437D1*
Y19562D1*
X29687Y19687D2*
Y20687D1*
X27187Y12437D2*
Y10812D1*
X26312Y9937D1*
X29812D2*
Y6187D1*
X27187Y12437D2*
Y16812D1*
X27687Y17312D1*
Y17562D1*
X30687D2*
Y20687D1*
X28187Y12437D2*
Y13687D1*
X32687D2*
Y20687D1*
X28187Y12437D2*
Y10312D1*
X27437Y9562D1*
X28812D2*
Y6187D1*
X27812D2*
Y9187D1*
X28687Y10062D1*
Y16812D1*
X29187Y17312D1*
Y18437D1*
X29812D1*
X30187Y18812D1*
Y21437D1*
X31187Y22437D1*
Y23937D1*
X31437Y24187D1*
X32187D1*
X32687Y23687D1*
X26812Y6187D2*
Y9687D1*
X27687Y10562D1*
Y16812D1*
X28187Y17312D1*
Y18437D1*
Y19062D1*
X29187Y20062D1*
Y21437D1*
X30687Y22937D1*
Y23687D1*
X25812Y6187D2*
Y10187D1*
X26687Y11062D1*
Y16937D1*
X27187Y17437D1*
Y18437D1*
Y19062D1*
X28187Y20062D1*
Y21437D1*
X29687Y22937D1*
Y23687D1*
X24812Y6187D2*
Y10437D1*
X25687Y11312D1*
Y16937D1*
X26187Y17437D1*
Y18437D1*
X31812Y6187D2*
Y9687D1*
X30437Y11062D1*
X24687D2*
Y16937D1*
X25187Y17437D1*
Y18437D1*
X27687Y20687D2*
Y21562D1*
X29187Y23062D1*
Y24687D1*
X29687Y25187D1*
X30936D1*
X30937Y25188D1*
X13312Y8812D2*
D14*
Y15937D1*
X12438D1*
X13312D2*
Y18437D1*
X14187D1*
X13312D2*
X9937D1*
X8687Y19687D1*
Y22687D1*
X7937D1*
X8687D2*
Y22937D1*
X9437Y23687D1*
Y24312D1*
X10312Y25187D1*
X17187D1*
Y23692D1*
Y22687D1*
Y23692D2*
X18682D1*
X18687Y23687D1*
X17187Y25187D2*
X26437D1*
X27687D1*
X26437D2*
X26438Y23681D1*
Y22687D1*
Y23681D2*
X27681D1*
X27687Y23687D1*
X13312Y9562D2*
D13*
Y8812D1*
X14437Y20687D2*
Y21687D1*
X14062Y22062D1*
X12937D1*
X12437Y22562D1*
Y23687D1*
X18687Y20687D2*
Y21312D1*
X19187Y21812D1*
Y23187D1*
X23687Y20687D2*
Y21062D1*
X24187Y21562D1*
Y24187D1*
X23187Y23187D2*
Y21687D1*
X22687Y21187D1*
Y20687D1*
X11250Y9000D2*
Y17187D1*
X24187Y18437D2*
Y17187D1*
X22187Y18437D2*
Y19312D1*
X21687Y19812D1*
Y20687D1*
X22187Y18437D2*
Y13562D1*
X22687Y13062D1*
Y9437D1*
X21687Y20687D2*
D3*
D14*
X9812Y12312D3*
X30937Y11437D3*
X24187D3*
X23187D3*
X10812Y11937D3*
X22187Y11062D3*
X32562Y9937D3*
X21187Y11312D3*
X14312D3*
X19187Y10937D3*
X16812D3*
X15812Y10187D3*
X20687D3*
X12312Y10562D3*
X23687D3*
X14812Y9812D3*
X21687D3*
X11812Y10937D3*
X16187D3*
X17187Y19812D3*
X31687Y14187D3*
X16312D3*
X14687Y19437D3*
X34187Y19062D3*
X31187Y19687D3*
X25187Y13687D3*
X14187D3*
X25312Y10312D3*
X30812Y9562D3*
X26687Y19562D3*
X29687Y19687D3*
X26312Y9937D3*
X29812D3*
X27687Y17562D3*
X30687D3*
X28187Y13687D3*
X32687D3*
X27437Y9562D3*
X28812D3*
X30437Y11062D3*
X24687D3*
X13312Y8812D3*
D3*
X19187Y23187D3*
X24187Y24187D3*
X23187Y23187D3*
X11250Y9000D3*
Y17187D3*
X24187D3*
X11250D3*
X22687Y9437D3*
X15937Y26937D3*
X19937D3*
X11937D3*
X5937Y13937D3*
Y16937D3*
X8937Y13937D3*
Y16937D3*
X37812Y17437D3*
X35312D3*
X37812Y13187D3*
X35312D3*
X23937Y26937D3*
X27937D3*
X31937D3*
X13312Y9562D3*
X6140Y27313D2*
D15*
X37234D1*
X5890Y27065D2*
X37484D1*
X5644Y26816D2*
X37730D1*
X5394Y26567D2*
X37980D1*
X5144Y26319D2*
X38230D1*
X4898Y26070D2*
X6344D1*
X7042D2*
X36543D1*
X37237D2*
X38476D1*
X4648Y25821D2*
X5848D1*
X7538D2*
X36043D1*
X37733D2*
X38726D1*
X4398Y25573D2*
X5609D1*
X7776D2*
X10027D1*
X28179D2*
X29195D1*
X30179D2*
X30445D1*
X32429D2*
X35808D1*
X37972D2*
X38976D1*
X4337Y25324D2*
X5469D1*
X7917D2*
X9766D1*
X28300D2*
X29074D1*
X32550D2*
X35664D1*
X38112D2*
X39039D1*
X4337Y25075D2*
X5391D1*
X7995D2*
X9519D1*
X28308D2*
X29066D1*
X32558D2*
X35586D1*
X38194D2*
X39039D1*
X4337Y24826D2*
X5359D1*
X8026D2*
X9269D1*
X28198D2*
X28867D1*
X30198D2*
X30426D1*
X32448D2*
X35558D1*
X38222D2*
X39039D1*
X4337Y24578D2*
X5379D1*
X8007D2*
X9031D1*
X10386D2*
X16699D1*
X17675D2*
X23910D1*
X24464D2*
X25949D1*
X26929D2*
X28836D1*
X29562D2*
X35578D1*
X38202D2*
X39039D1*
X4337Y24329D2*
X5449D1*
X7937D2*
X8949D1*
X10136D2*
X16699D1*
X17675D2*
X23719D1*
X24655D2*
X25949D1*
X26929D2*
X28836D1*
X29538D2*
X31094D1*
X32530D2*
X35648D1*
X38132D2*
X39039D1*
X4337Y24080D2*
X5578D1*
X7808D2*
X8949D1*
X10862D2*
X11012D1*
X11862D2*
X12012D1*
X12862D2*
X13012D1*
X13862D2*
X14012D1*
X14862D2*
X15012D1*
X15862D2*
X16699D1*
X19112D2*
X19262D1*
X20112D2*
X20262D1*
X21112D2*
X21262D1*
X22112D2*
X22262D1*
X23112D2*
X23262D1*
X25112D2*
X25949D1*
X28112D2*
X28262D1*
X30112D2*
X30262D1*
X33112D2*
X33262D1*
X34112D2*
X34262D1*
X35112D2*
X35777D1*
X38003D2*
X39039D1*
X4337Y23832D2*
X5793D1*
X7593D2*
X8871D1*
X16003D2*
X16699D1*
X25253D2*
X25949D1*
X35253D2*
X35988D1*
X37788D2*
X39039D1*
X4337Y23583D2*
X6199D1*
X7187D2*
X8652D1*
X16011D2*
X16699D1*
X25261D2*
X25949D1*
X35261D2*
X36394D1*
X37386D2*
X39039D1*
X4337Y23334D2*
X8402D1*
X15898D2*
X16699D1*
X25148D2*
X25949D1*
X35148D2*
X39039D1*
X4337Y23086D2*
X7457D1*
X12788D2*
X16699D1*
X17675D2*
X18707D1*
X24538D2*
X25949D1*
X34038D2*
X39039D1*
X4337Y22837D2*
X7328D1*
X12788D2*
X16578D1*
X17796D2*
X18836D1*
X24538D2*
X25828D1*
X34273D2*
X39039D1*
X4337Y22588D2*
X7316D1*
X12894D2*
X16566D1*
X17808D2*
X18836D1*
X24538D2*
X25816D1*
X34499D2*
X39039D1*
X4337Y22340D2*
X7418D1*
X14257D2*
X16668D1*
X17706D2*
X18836D1*
X24538D2*
X25918D1*
X34538D2*
X39039D1*
X4337Y22091D2*
X7461D1*
X14519D2*
X16711D1*
X17663D2*
X18836D1*
X24538D2*
X25961D1*
X34538D2*
X39039D1*
X4337Y21842D2*
X7328D1*
X14749D2*
X16578D1*
X17796D2*
X18734D1*
X24538D2*
X25828D1*
X34538D2*
X39039D1*
X4337Y21594D2*
X7312D1*
X14788D2*
X16562D1*
X17808D2*
X18484D1*
X24538D2*
X25816D1*
X34538D2*
X39039D1*
X4337Y21345D2*
X7414D1*
X14788D2*
X16664D1*
X17710D2*
X18340D1*
X24452D2*
X25914D1*
X34538D2*
X39039D1*
X4337Y21096D2*
X7781D1*
X14843D2*
X15033D1*
X15843D2*
X17031D1*
X17339D2*
X18101D1*
X25093D2*
X26238D1*
X35093D2*
X39039D1*
X4337Y20847D2*
X8199D1*
X15999D2*
X18101D1*
X25249D2*
X25988D1*
X35249D2*
X39039D1*
X4337Y20599D2*
X8199D1*
X16015D2*
X18101D1*
X25265D2*
X25738D1*
X35265D2*
X39039D1*
X4337Y20350D2*
X8199D1*
X15909D2*
X18101D1*
X25159D2*
X25492D1*
X35159D2*
X39039D1*
X4337Y20101D2*
X8199D1*
X9175D2*
X16797D1*
X17577D2*
X18742D1*
X23538D2*
X25340D1*
X32038D2*
X32336D1*
X33038D2*
X33836D1*
X34538D2*
X39039D1*
X4337Y19853D2*
X8199D1*
X9202D2*
X14453D1*
X14921D2*
X16699D1*
X17675D2*
X18492D1*
X23538D2*
X25336D1*
X32038D2*
X32336D1*
X33038D2*
X33836D1*
X34538D2*
X39039D1*
X4337Y19604D2*
X8203D1*
X9452D2*
X14226D1*
X15148D2*
X16746D1*
X17628D2*
X18246D1*
X23538D2*
X25336D1*
X32038D2*
X32336D1*
X33038D2*
X33836D1*
X34538D2*
X39039D1*
X4337Y19355D2*
X8336D1*
X9702D2*
X14203D1*
X15171D2*
X16836D1*
X17538D2*
X17996D1*
X23538D2*
X25336D1*
X32038D2*
X32336D1*
X33038D2*
X33801D1*
X34573D2*
X39039D1*
X4337Y19107D2*
X8586D1*
X9948D2*
X14336D1*
X15038D2*
X16836D1*
X17538D2*
X17840D1*
X23538D2*
X25336D1*
X31038D2*
X31336D1*
X32038D2*
X32336D1*
X33038D2*
X33699D1*
X34675D2*
X39039D1*
X4337Y18858D2*
X8832D1*
X15581D2*
X15793D1*
X16581D2*
X16793D1*
X17581D2*
X17793D1*
X23581D2*
X23793D1*
X24581D2*
X24793D1*
X31038D2*
X31336D1*
X32038D2*
X32336D1*
X33038D2*
X33746D1*
X34628D2*
X39039D1*
X4337Y18609D2*
X9082D1*
X31038D2*
X31336D1*
X32038D2*
X32336D1*
X33038D2*
X34058D1*
X34319D2*
X39039D1*
X4337Y18361D2*
X9332D1*
X31038D2*
X31336D1*
X32038D2*
X32336D1*
X33038D2*
X39039D1*
X4337Y18112D2*
X9578D1*
X29667D2*
X30336D1*
X31038D2*
X31336D1*
X32038D2*
X32336D1*
X33038D2*
X39039D1*
X4337Y17863D2*
X12824D1*
X29538D2*
X30308D1*
X31066D2*
X31336D1*
X32038D2*
X32336D1*
X33038D2*
X39039D1*
X4337Y17615D2*
X11043D1*
X11456D2*
X12824D1*
X29538D2*
X30199D1*
X31175D2*
X31336D1*
X32038D2*
X32336D1*
X33038D2*
X39039D1*
X4337Y17366D2*
X10797D1*
X11702D2*
X12824D1*
X29538D2*
X30242D1*
X31132D2*
X31336D1*
X32038D2*
X32336D1*
X33038D2*
X39039D1*
X4337Y17117D2*
X10766D1*
X11733D2*
X12824D1*
X29472D2*
X30527D1*
X30847D2*
X31336D1*
X32038D2*
X32336D1*
X33038D2*
X39039D1*
X4337Y16868D2*
X10887D1*
X11612D2*
X12824D1*
X29230D2*
X31336D1*
X32038D2*
X32336D1*
X33038D2*
X39039D1*
X4337Y16620D2*
X10898D1*
X11601D2*
X12824D1*
X29038D2*
X31336D1*
X32038D2*
X32336D1*
X33038D2*
X39039D1*
X4337Y16371D2*
X10898D1*
X11601D2*
X11992D1*
X29038D2*
X31336D1*
X32038D2*
X32336D1*
X33038D2*
X39039D1*
X4337Y16122D2*
X10898D1*
X11601D2*
X11836D1*
X29038D2*
X31336D1*
X32038D2*
X32336D1*
X33038D2*
X39039D1*
X4337Y15874D2*
X10898D1*
X11601D2*
X11812D1*
X29038D2*
X31336D1*
X32038D2*
X32336D1*
X33038D2*
X39039D1*
X4337Y15625D2*
X10898D1*
X11601D2*
X11894D1*
X29038D2*
X31336D1*
X32038D2*
X32336D1*
X33038D2*
X39039D1*
X4337Y15376D2*
X10898D1*
X11601D2*
X11996D1*
X29038D2*
X31336D1*
X32038D2*
X32336D1*
X33038D2*
X39039D1*
X4337Y15128D2*
X10898D1*
X11601D2*
X11840D1*
X29038D2*
X31336D1*
X32038D2*
X32336D1*
X33038D2*
X39039D1*
X4337Y14879D2*
X10898D1*
X11601D2*
X11808D1*
X29038D2*
X31336D1*
X32038D2*
X32336D1*
X33038D2*
X39039D1*
X4337Y14630D2*
X10898D1*
X11601D2*
X11891D1*
X29038D2*
X31336D1*
X32038D2*
X32336D1*
X33038D2*
X39039D1*
X4337Y14382D2*
X10898D1*
X11601D2*
X12172D1*
X29038D2*
X31238D1*
X32136D2*
X32336D1*
X33038D2*
X39039D1*
X4337Y14133D2*
X10898D1*
X11601D2*
X12824D1*
X29038D2*
X31199D1*
X32175D2*
X32336D1*
X33038D2*
X39039D1*
X4337Y13884D2*
X10898D1*
X11601D2*
X12824D1*
X29038D2*
X31308D1*
X32066D2*
X32242D1*
X33132D2*
X39039D1*
X4337Y13635D2*
X10898D1*
X11601D2*
X12824D1*
X29038D2*
X32199D1*
X33175D2*
X39039D1*
X4337Y13387D2*
X10898D1*
X11601D2*
X12824D1*
X29038D2*
X32308D1*
X33066D2*
X39039D1*
X4337Y13138D2*
X10898D1*
X11601D2*
X12824D1*
X29038D2*
X39039D1*
X4337Y12889D2*
X10898D1*
X11601D2*
X12824D1*
X29542D2*
X39039D1*
X4337Y12641D2*
X9457D1*
X10167D2*
X10898D1*
X11601D2*
X12824D1*
X29733D2*
X39039D1*
X4337Y12392D2*
X9328D1*
X10296D2*
X10691D1*
X11601D2*
X12824D1*
X29769D2*
X39039D1*
X4337Y12143D2*
X9355D1*
X11601D2*
X12824D1*
X29691D2*
X39039D1*
X4337Y11895D2*
X9461D1*
X10163D2*
X10324D1*
X11601D2*
X12824D1*
X29351D2*
X30832D1*
X31045D2*
X39039D1*
X4337Y11646D2*
X9461D1*
X10163D2*
X10426D1*
X11601D2*
X12824D1*
X29038D2*
X30496D1*
X31378D2*
X39039D1*
X4337Y11397D2*
X9461D1*
X10163D2*
X10461D1*
X11900D2*
X12824D1*
X29038D2*
X30090D1*
X31425D2*
X39039D1*
X4337Y11149D2*
X9461D1*
X10163D2*
X10461D1*
X12249D2*
X12824D1*
X29038D2*
X29957D1*
X31335D2*
X39039D1*
X4337Y10900D2*
X9461D1*
X10163D2*
X10461D1*
X12655D2*
X12824D1*
X29038D2*
X29976D1*
X31585D2*
X39039D1*
X4337Y10651D2*
X9461D1*
X10163D2*
X10461D1*
X29038D2*
X30195D1*
X31831D2*
X39039D1*
X10163Y10403D2*
X10461D1*
X29038D2*
X30613D1*
X32081D2*
X34164D1*
X10163Y10154D2*
X10461D1*
X12663D2*
X12824D1*
X29038D2*
X29375D1*
X30249D2*
X30859D1*
X32999D2*
X34164D1*
X10163Y9905D2*
X10461D1*
X12663D2*
X12824D1*
X29151D2*
X29324D1*
X30300D2*
X30473D1*
X33077D2*
X34164D1*
X10163Y9656D2*
X10461D1*
X12663D2*
X12824D1*
X29292D2*
X29418D1*
X30206D2*
X30332D1*
X33327D2*
X34164D1*
X10163Y9408D2*
X10461D1*
X12663D2*
X12824D1*
X29276D2*
X29461D1*
X30163D2*
X30348D1*
X31276D2*
X31461D1*
X33577D2*
X34164D1*
X10163Y9159D2*
X10461D1*
X12663D2*
X12824D1*
X29163D2*
X29461D1*
X30163D2*
X30461D1*
X31163D2*
X31461D1*
X33823D2*
X34164D1*
X10163Y8910D2*
X10461D1*
X29163D2*
X29461D1*
X30163D2*
X30461D1*
X31163D2*
X31461D1*
X10163Y8662D2*
X10461D1*
X29163D2*
X29461D1*
X30163D2*
X30461D1*
X31163D2*
X31461D1*
X26271Y21105D2*
X26149Y21155D1*
X26046Y21225D1*
X25960Y21315D1*
X25894Y21421D1*
X25851Y21538D1*
X25833Y21662D1*
X25840Y21786D1*
X25873Y21906D1*
X25930Y22017D1*
X26009Y22114D1*
X26097Y22187D1*
X26047Y22225D1*
X25961Y22315D1*
X25895Y22421D1*
X25851Y22538D1*
X25833Y22662D1*
X25841Y22786D1*
X25874Y22906D1*
X25931Y23017D1*
X25973Y23069D1*
X25972Y24724D1*
X22562Y24722D1*
X17652D1*
Y24160D1*
X18378Y24157D1*
X18549Y24230D1*
X18672Y24247D1*
X18796Y24236D1*
X18915Y24199D1*
X19023Y24135D1*
X19114Y24050D1*
X19188Y23936D1*
X19242Y24027D1*
X19328Y24117D1*
X19432Y24186D1*
X19549Y24230D1*
X19672Y24247D1*
X19796Y24236D1*
X19915Y24199D1*
X20023Y24135D1*
X20114Y24050D1*
X20188Y23936D1*
X20242Y24027D1*
X20328Y24117D1*
X20432Y24186D1*
X20549Y24230D1*
X20672Y24247D1*
X20796Y24236D1*
X20915Y24199D1*
X21023Y24135D1*
X21114Y24050D1*
X21188Y23936D1*
X21242Y24027D1*
X21328Y24117D1*
X21432Y24186D1*
X21549Y24230D1*
X21672Y24247D1*
X21796Y24236D1*
X21915Y24199D1*
X22023Y24135D1*
X22114Y24050D1*
X22188Y23936D1*
X22242Y24027D1*
X22328Y24117D1*
X22432Y24186D1*
X22549Y24230D1*
X22672Y24247D1*
X22796Y24236D1*
X22915Y24199D1*
X23023Y24135D1*
X23114Y24050D1*
X23188Y23936D1*
X23242Y24027D1*
X23328Y24117D1*
X23432Y24186D1*
X23549Y24230D1*
X23672Y24247D1*
X23723Y24243D1*
X23751Y24348D1*
X23809Y24458D1*
X23895Y24549D1*
X24001Y24613D1*
X24121Y24647D1*
X24246Y24648D1*
X24366Y24616D1*
X24474Y24553D1*
X24561Y24464D1*
X24621Y24354D1*
X24647Y24244D1*
X24796Y24236D1*
X24915Y24199D1*
X25023Y24135D1*
X25114Y24050D1*
X25183Y23947D1*
X25229Y23830D1*
X25247Y23687D1*
X25233Y23563D1*
X25192Y23445D1*
X25126Y23339D1*
X25038Y23251D1*
X24933Y23184D1*
X24816Y23142D1*
X24692Y23127D1*
X24568Y23140D1*
X24512Y23158D1*
Y21562D1*
X24488Y21440D1*
X24417Y21332D1*
X24121Y21037D1*
X24213Y20986D1*
X24291Y21083D1*
X24388Y21161D1*
X24501Y21215D1*
X24622Y21243D1*
X24747Y21244D1*
X24869Y21217D1*
X24982Y21164D1*
X25080Y21087D1*
X25158Y20990D1*
X25214Y20878D1*
X25243Y20757D1*
X25245Y20637D1*
X25220Y20515D1*
X25169Y20401D1*
X25094Y20302D1*
X24998Y20221D1*
X24887Y20164D1*
X24767Y20133D1*
X24642Y20129D1*
X24520Y20152D1*
X24405Y20203D1*
X24305Y20277D1*
X24224Y20372D1*
X24187Y20434D1*
X24126Y20339D1*
X24038Y20251D1*
X23933Y20184D1*
X23816Y20142D1*
X23692Y20127D1*
X23568Y20140D1*
X23512Y20158D1*
Y18894D1*
X23614Y18800D1*
X23688Y18686D1*
X23742Y18777D1*
X23828Y18867D1*
X23932Y18936D1*
X24049Y18980D1*
X24172Y18997D1*
X24296Y18986D1*
X24415Y18949D1*
X24523Y18885D1*
X24614Y18800D1*
X24688Y18686D1*
X24742Y18777D1*
X24828Y18867D1*
X24932Y18936D1*
X25049Y18980D1*
X25172Y18997D1*
X25296Y18986D1*
X25360Y18966D1*
X25362Y20062D1*
X25386Y20184D1*
X25457Y20292D1*
X26272Y21107D1*
X12847Y14493D2*
X12747Y14417D1*
X12634Y14365D1*
X12512Y14337D1*
X12387Y14334D1*
X12265Y14357D1*
X12149Y14405D1*
X12046Y14475D1*
X11960Y14565D1*
X11894Y14671D1*
X11851Y14788D1*
X11833Y14912D1*
X11840Y15036D1*
X11873Y15156D1*
X11930Y15267D1*
X12009Y15364D1*
X12097Y15437D1*
X12047Y15475D1*
X11961Y15565D1*
X11895Y15671D1*
X11851Y15788D1*
X11833Y15912D1*
X11841Y16036D1*
X11874Y16156D1*
X11931Y16267D1*
X12010Y16364D1*
X12106Y16443D1*
X12217Y16500D1*
X12338Y16534D1*
X12462Y16541D1*
X12586Y16524D1*
X12703Y16481D1*
X12823Y16401D1*
X12847Y16437D1*
Y17972D1*
X9937D1*
X9814Y17989D1*
X9699Y18038D1*
X9608Y18108D1*
X8358Y19358D1*
X8283Y19457D1*
X8236Y19573D1*
X8222Y19687D1*
Y21152D1*
X8085Y21101D1*
X7961Y21083D1*
X7837Y21090D1*
X7717Y21123D1*
X7606Y21180D1*
X7509Y21259D1*
X7430Y21356D1*
X7373Y21467D1*
X7340Y21587D1*
X7332Y21712D1*
X7350Y21835D1*
X7392Y21952D1*
X7458Y22058D1*
X7545Y22148D1*
X7596Y22187D1*
X7546Y22225D1*
X7460Y22315D1*
X7394Y22421D1*
X7351Y22538D1*
X7333Y22662D1*
X7340Y22786D1*
X7373Y22906D1*
X7430Y23017D1*
X7509Y23114D1*
X7606Y23193D1*
X7716Y23250D1*
X7837Y23284D1*
X7961Y23291D1*
X8085Y23274D1*
X8202Y23231D1*
X8291Y23175D1*
X8358Y23266D1*
X8889Y23801D1*
X8927Y23920D1*
X8974Y23997D1*
X8972Y24312D1*
X8989Y24436D1*
X9038Y24550D1*
X9108Y24641D1*
X9983Y25516D1*
X10082Y25591D1*
X10198Y25638D1*
X10312Y25652D1*
X27300D1*
X27356Y25693D1*
X27466Y25750D1*
X27587Y25784D1*
X27711Y25791D1*
X27835Y25774D1*
X27952Y25731D1*
X28058Y25665D1*
X28148Y25579D1*
X28219Y25476D1*
X28267Y25361D1*
X28292Y25187D1*
X28279Y25063D1*
X28241Y24944D1*
X28179Y24836D1*
X28097Y24742D1*
X27997Y24667D1*
X27884Y24615D1*
X27762Y24587D1*
X27637Y24584D1*
X27515Y24607D1*
X27399Y24655D1*
X27300Y24723D1*
X26902Y24722D1*
Y24144D1*
X27364Y24146D1*
X27432Y24186D1*
X27549Y24230D1*
X27672Y24247D1*
X27796Y24236D1*
X27915Y24199D1*
X28023Y24135D1*
X28114Y24050D1*
X28188Y23936D1*
X28242Y24027D1*
X28328Y24117D1*
X28432Y24186D1*
X28549Y24230D1*
X28672Y24247D1*
X28796Y24236D1*
X28860Y24216D1*
X28862Y24687D1*
X28886Y24809D1*
X28957Y24917D1*
X29098Y25058D1*
X29083Y25162D1*
X29090Y25286D1*
X29123Y25406D1*
X29180Y25517D1*
X29259Y25614D1*
X29356Y25693D1*
X29466Y25750D1*
X29587Y25784D1*
X29711Y25791D1*
X29835Y25774D1*
X29952Y25731D1*
X30058Y25665D1*
X30148Y25579D1*
X30194Y25511D1*
X30425Y25512D1*
X30509Y25615D1*
X30606Y25694D1*
X30716Y25751D1*
X30837Y25784D1*
X30961Y25792D1*
X31085Y25774D1*
X31202Y25732D1*
X31308Y25666D1*
X31398Y25579D1*
X31436Y25525D1*
X31509Y25614D1*
X31606Y25693D1*
X31716Y25750D1*
X31837Y25784D1*
X31961Y25791D1*
X32085Y25774D1*
X32202Y25731D1*
X32308Y25665D1*
X32398Y25579D1*
X32469Y25476D1*
X32517Y25361D1*
X32540Y25238D1*
X32537Y25112D1*
X32509Y24991D1*
X32457Y24877D1*
X32382Y24777D1*
X32289Y24695D1*
X32180Y24633D1*
X32061Y24595D1*
X31937Y24582D1*
X31813Y24595D1*
X31694Y24633D1*
X31586Y24694D1*
X31492Y24777D1*
X31437Y24847D1*
X31347Y24743D1*
X31247Y24668D1*
X31134Y24616D1*
X31012Y24588D1*
X30887Y24585D1*
X30765Y24608D1*
X30649Y24656D1*
X30546Y24726D1*
X30460Y24816D1*
X30429Y24866D1*
X30198Y24862D1*
X30097Y24742D1*
X29997Y24667D1*
X29884Y24615D1*
X29762Y24587D1*
X29637Y24584D1*
X29557Y24599D1*
X29512Y24437D1*
Y24222D1*
X29672Y24247D1*
X29796Y24236D1*
X29915Y24199D1*
X30023Y24135D1*
X30114Y24050D1*
X30188Y23936D1*
X30242Y24027D1*
X30328Y24117D1*
X30432Y24186D1*
X30549Y24230D1*
X30672Y24247D1*
X30796Y24236D1*
X30915Y24199D1*
X30959Y24173D1*
X31207Y24417D1*
X31310Y24486D1*
X31437Y24512D1*
X32187D1*
X32309Y24488D1*
X32417Y24417D1*
X32596Y24237D1*
X32672Y24247D1*
X32796Y24236D1*
X32915Y24199D1*
X33023Y24135D1*
X33114Y24050D1*
X33188Y23936D1*
X33242Y24027D1*
X33328Y24117D1*
X33432Y24186D1*
X33549Y24230D1*
X33672Y24247D1*
X33796Y24236D1*
X33915Y24199D1*
X34023Y24135D1*
X34114Y24050D1*
X34188Y23936D1*
X34242Y24027D1*
X34328Y24117D1*
X34432Y24186D1*
X34549Y24230D1*
X34672Y24247D1*
X34796Y24236D1*
X34915Y24199D1*
X35023Y24135D1*
X35114Y24050D1*
X35183Y23947D1*
X35229Y23830D1*
X35247Y23687D1*
X35233Y23563D1*
X35192Y23445D1*
X35126Y23339D1*
X35038Y23251D1*
X34933Y23184D1*
X34816Y23142D1*
X34692Y23127D1*
X34568Y23140D1*
X34450Y23180D1*
X34343Y23245D1*
X34254Y23332D1*
X34188Y23433D1*
X34126Y23339D1*
X34009Y23232D1*
X34012Y23074D1*
X34417Y22667D1*
X34486Y22564D1*
X34512Y22437D1*
Y21222D1*
X34647Y21246D1*
X34772Y21241D1*
X34892Y21208D1*
X35003Y21150D1*
X35097Y21069D1*
X35171Y20968D1*
X35222Y20854D1*
X35245Y20732D1*
X35242Y20612D1*
X35212Y20491D1*
X35156Y20380D1*
X35076Y20284D1*
X34977Y20208D1*
X34864Y20155D1*
X34742Y20130D1*
X34617Y20131D1*
X34511Y20155D1*
X34512Y19394D1*
X34561Y19339D1*
X34621Y19229D1*
X34652Y19062D1*
X34635Y18939D1*
X34586Y18824D1*
X34509Y18726D1*
X34408Y18653D1*
X34291Y18609D1*
X34167Y18598D1*
X34045Y18619D1*
X33932Y18673D1*
X33838Y18755D1*
X33769Y18859D1*
X33730Y18977D1*
X33724Y19101D1*
X33751Y19223D1*
X33809Y19333D1*
X33860Y19387D1*
X33862Y20152D1*
X33692Y20127D1*
X33568Y20140D1*
X33450Y20180D1*
X33343Y20245D1*
X33254Y20332D1*
X33188Y20433D1*
X33126Y20339D1*
X33009Y20232D1*
X33012Y19437D1*
Y14019D1*
X33061Y13964D1*
X33121Y13854D1*
X33152Y13687D1*
X33135Y13564D1*
X33086Y13449D1*
X33009Y13351D1*
X32908Y13278D1*
X32791Y13234D1*
X32667Y13223D1*
X32545Y13244D1*
X32432Y13298D1*
X32338Y13380D1*
X32269Y13484D1*
X32230Y13602D1*
X32224Y13726D1*
X32251Y13848D1*
X32309Y13958D1*
X32360Y14012D1*
X32362Y16687D1*
Y20230D1*
X32254Y20332D1*
X32188Y20433D1*
X32126Y20339D1*
X32009Y20232D1*
X32012Y19437D1*
Y14519D1*
X32061Y14464D1*
X32121Y14354D1*
X32152Y14187D1*
X32135Y14064D1*
X32086Y13949D1*
X32009Y13851D1*
X31908Y13778D1*
X31791Y13734D1*
X31667Y13723D1*
X31545Y13744D1*
X31432Y13798D1*
X31338Y13880D1*
X31269Y13984D1*
X31230Y14102D1*
X31224Y14226D1*
X31251Y14348D1*
X31309Y14458D1*
X31360Y14512D1*
X31362Y17187D1*
Y19253D1*
X31291Y19234D1*
X31167Y19223D1*
X31045Y19244D1*
X31013Y19260D1*
X31012Y17894D1*
X31061Y17839D1*
X31121Y17729D1*
X31152Y17562D1*
X31135Y17439D1*
X31086Y17324D1*
X31009Y17226D1*
X30908Y17153D1*
X30791Y17109D1*
X30667Y17098D1*
X30545Y17119D1*
X30432Y17173D1*
X30338Y17255D1*
X30269Y17359D1*
X30230Y17477D1*
X30224Y17601D1*
X30251Y17723D1*
X30309Y17833D1*
X30360Y17887D1*
X30362Y18527D1*
X30042Y18207D1*
X29939Y18138D1*
X29812Y18112D1*
X29644D1*
X29538Y18001D1*
X29509Y17982D1*
X29512Y17312D1*
X29488Y17190D1*
X29417Y17082D1*
X29011Y16676D1*
X29012Y12972D1*
X29147Y12996D1*
X29272Y12991D1*
X29392Y12958D1*
X29503Y12900D1*
X29597Y12819D1*
X29671Y12718D1*
X29722Y12604D1*
X29745Y12482D1*
X29742Y12362D1*
X29712Y12241D1*
X29656Y12130D1*
X29576Y12034D1*
X29477Y11958D1*
X29364Y11905D1*
X29242Y11880D1*
X29117Y11881D1*
X29011Y11905D1*
Y10058D1*
X29099Y9928D1*
X29186Y9839D1*
X29246Y9729D1*
X29277Y9562D1*
X29260Y9439D1*
X29212Y9324D1*
X29136Y9229D1*
X29137Y8519D1*
X29392Y8515D1*
X29486Y8519D1*
X29487Y9605D1*
X29394Y9734D1*
X29355Y9852D1*
X29349Y9976D1*
X29376Y10098D1*
X29434Y10208D1*
X29520Y10299D1*
X29626Y10363D1*
X29746Y10397D1*
X29871Y10398D1*
X29991Y10366D1*
X30099Y10303D1*
X30186Y10214D1*
X30246Y10104D1*
X30277Y9937D1*
X30260Y9814D1*
X30211Y9699D1*
X30136Y9604D1*
X30137Y8519D1*
X30392Y8515D1*
X30486Y8519D1*
X30487Y9230D1*
X30394Y9359D1*
X30355Y9477D1*
X30349Y9601D1*
X30376Y9723D1*
X30434Y9833D1*
X30520Y9924D1*
X30626Y9988D1*
X30746Y10022D1*
X30871Y10023D1*
X30991Y9991D1*
X31099Y9928D1*
X31186Y9839D1*
X31246Y9729D1*
X31277Y9562D1*
X31260Y9439D1*
X31211Y9324D1*
X31136Y9229D1*
X31137Y8519D1*
X31392Y8515D1*
X31486Y8519D1*
X31487Y9550D1*
X30442Y10598D1*
X30295Y10619D1*
X30182Y10673D1*
X30088Y10755D1*
X30019Y10859D1*
X29980Y10977D1*
X29974Y11101D1*
X30001Y11223D1*
X30059Y11333D1*
X30145Y11424D1*
X30251Y11488D1*
X30371Y11522D1*
X30476Y11523D1*
X30501Y11598D1*
X30559Y11708D1*
X30645Y11799D1*
X30751Y11863D1*
X30871Y11897D1*
X30996Y11898D1*
X31116Y11866D1*
X31224Y11803D1*
X31311Y11714D1*
X31371Y11604D1*
X31402Y11437D1*
X31385Y11314D1*
X31336Y11199D1*
X31300Y11153D1*
X31697Y10761D1*
X32214Y10245D1*
X32270Y10299D1*
X32376Y10363D1*
X32496Y10397D1*
X32621Y10398D1*
X32741Y10366D1*
X32849Y10303D1*
X32936Y10214D1*
X32996Y10104D1*
X33027Y9937D1*
X33145Y9813D1*
X34042Y8917D1*
X34111Y8814D1*
X34137Y8687D1*
Y8519D1*
X34187Y8562D1*
Y10437D1*
X34248Y10542D1*
X34312Y10562D1*
X39062D1*
Y25511D1*
X37008Y27565D1*
X35562Y27562D1*
X6363D1*
X4309Y25508D1*
X4312Y24062D1*
Y10562D1*
X9487D1*
Y11980D1*
X9394Y12109D1*
X9355Y12227D1*
X9349Y12351D1*
X9376Y12473D1*
X9434Y12583D1*
X9520Y12674D1*
X9627Y12738D1*
X9747Y12772D1*
X9871Y12773D1*
X9992Y12741D1*
X10099Y12678D1*
X10186Y12589D1*
X10246Y12479D1*
X10277Y12312D1*
X10260Y12189D1*
X10212Y12074D1*
X10136Y11979D1*
X10137Y8519D1*
X10392Y8515D1*
X10486Y8519D1*
X10487Y11605D1*
X10394Y11734D1*
X10355Y11852D1*
X10349Y11976D1*
X10376Y12098D1*
X10434Y12208D1*
X10520Y12299D1*
X10627Y12363D1*
X10747Y12397D1*
X10871Y12398D1*
X10928Y12383D1*
X10925Y13750D1*
Y16855D1*
X10831Y16984D1*
X10792Y17102D1*
X10786Y17226D1*
X10813Y17348D1*
X10872Y17458D1*
X10957Y17549D1*
X11064Y17613D1*
X11184Y17647D1*
X11308Y17648D1*
X11429Y17616D1*
X11536Y17553D1*
X11623Y17464D1*
X11683Y17354D1*
X11714Y17187D1*
X11698Y17064D1*
X11649Y16949D1*
X11574Y16854D1*
Y11339D1*
X11747Y11397D1*
X11871Y11398D1*
X11992Y11366D1*
X12099Y11303D1*
X12186Y11214D1*
X12246Y11104D1*
X12265Y11025D1*
X12371Y11023D1*
X12491Y10991D1*
X12599Y10928D1*
X12686Y10839D1*
X12746Y10729D1*
X12777Y10562D1*
X12760Y10439D1*
X12711Y10324D1*
X12636Y10229D1*
X12637Y9074D1*
X12848Y8860D1*
X12847Y14496D1*
X17779Y22563D2*
X17741Y22444D1*
X17679Y22336D1*
X17597Y22242D1*
X17525Y22188D1*
X17613Y22115D1*
X17692Y22019D1*
X17749Y21908D1*
X17783Y21788D1*
X17791Y21662D1*
X17773Y21539D1*
X17730Y21421D1*
X17664Y21316D1*
X17577Y21225D1*
X17474Y21155D1*
X17359Y21107D1*
X17236Y21084D1*
X17112Y21087D1*
X16990Y21115D1*
X16877Y21167D1*
X16777Y21242D1*
X16694Y21335D1*
X16632Y21444D1*
X16594Y21562D1*
X16581Y21687D1*
X16594Y21811D1*
X16632Y21929D1*
X16694Y22038D1*
X16776Y22132D1*
X16846Y22187D1*
X16796Y22225D1*
X16710Y22315D1*
X16644Y22421D1*
X16601Y22538D1*
X16583Y22662D1*
X16590Y22786D1*
X16623Y22906D1*
X16680Y23017D1*
X16722Y23069D1*
Y24719D1*
X15937Y24722D1*
X10503D1*
X9903Y24121D1*
X9902Y23996D1*
X9938Y23936D1*
X9992Y24027D1*
X10078Y24117D1*
X10182Y24186D1*
X10299Y24230D1*
X10422Y24247D1*
X10546Y24236D1*
X10665Y24199D1*
X10773Y24135D1*
X10864Y24050D1*
X10938Y23936D1*
X10992Y24027D1*
X11078Y24117D1*
X11182Y24186D1*
X11299Y24230D1*
X11422Y24247D1*
X11546Y24236D1*
X11665Y24199D1*
X11773Y24135D1*
X11864Y24050D1*
X11938Y23936D1*
X11992Y24027D1*
X12078Y24117D1*
X12182Y24186D1*
X12299Y24230D1*
X12422Y24247D1*
X12546Y24236D1*
X12665Y24199D1*
X12773Y24135D1*
X12864Y24050D1*
X12938Y23936D1*
X12992Y24027D1*
X13078Y24117D1*
X13182Y24186D1*
X13299Y24230D1*
X13422Y24247D1*
X13546Y24236D1*
X13665Y24199D1*
X13773Y24135D1*
X13864Y24050D1*
X13938Y23936D1*
X13992Y24027D1*
X14078Y24117D1*
X14182Y24186D1*
X14299Y24230D1*
X14422Y24247D1*
X14546Y24236D1*
X14665Y24199D1*
X14773Y24135D1*
X14864Y24050D1*
X14938Y23936D1*
X14992Y24027D1*
X15078Y24117D1*
X15182Y24186D1*
X15299Y24230D1*
X15422Y24247D1*
X15546Y24236D1*
X15665Y24199D1*
X15773Y24135D1*
X15864Y24050D1*
X15933Y23947D1*
X15979Y23830D1*
X15997Y23687D1*
X15983Y23563D1*
X15942Y23445D1*
X15876Y23339D1*
X15788Y23251D1*
X15683Y23184D1*
X15566Y23142D1*
X15442Y23127D1*
X15318Y23140D1*
X15200Y23180D1*
X15093Y23245D1*
X15004Y23332D1*
X14938Y23433D1*
X14876Y23339D1*
X14788Y23251D1*
X14683Y23184D1*
X14566Y23142D1*
X14442Y23127D1*
X14318Y23140D1*
X14200Y23180D1*
X14093Y23245D1*
X14004Y23332D1*
X13938Y23433D1*
X13876Y23339D1*
X13788Y23251D1*
X13683Y23184D1*
X13566Y23142D1*
X13442Y23127D1*
X13318Y23140D1*
X13200Y23180D1*
X13093Y23245D1*
X13004Y23332D1*
X12938Y23433D1*
X12876Y23339D1*
X12759Y23232D1*
X12762Y22699D1*
X13073Y22386D1*
X14062Y22387D1*
X14184Y22363D1*
X14292Y22292D1*
X14667Y21917D1*
X14736Y21814D1*
X14762Y21687D1*
Y21144D1*
X14864Y21050D1*
X14938Y20936D1*
X14977Y21007D1*
X15059Y21100D1*
X15160Y21174D1*
X15275Y21223D1*
X15397Y21246D1*
X15522Y21241D1*
X15642Y21208D1*
X15753Y21150D1*
X15847Y21069D1*
X15921Y20968D1*
X15972Y20854D1*
X15995Y20732D1*
X15992Y20612D1*
X15962Y20491D1*
X15906Y20380D1*
X15826Y20284D1*
X15727Y20208D1*
X15614Y20155D1*
X15492Y20130D1*
X15367Y20131D1*
X15246Y20160D1*
X15134Y20216D1*
X15037Y20294D1*
X14960Y20393D1*
X14937Y20434D1*
X14876Y20339D1*
X14788Y20251D1*
X14683Y20184D1*
X14566Y20142D1*
X14442Y20127D1*
X14318Y20140D1*
X14200Y20180D1*
X14093Y20245D1*
X14004Y20332D1*
X13938Y20433D1*
X13876Y20339D1*
X13788Y20251D1*
X13683Y20184D1*
X13566Y20142D1*
X13442Y20127D1*
X13318Y20140D1*
X13200Y20180D1*
X13093Y20245D1*
X13004Y20332D1*
X12938Y20433D1*
X12876Y20339D1*
X12788Y20251D1*
X12683Y20184D1*
X12566Y20142D1*
X12442Y20127D1*
X12318Y20140D1*
X12200Y20180D1*
X12093Y20245D1*
X12004Y20332D1*
X11938Y20433D1*
X11876Y20339D1*
X11788Y20251D1*
X11683Y20184D1*
X11566Y20142D1*
X11442Y20127D1*
X11318Y20140D1*
X11200Y20180D1*
X11093Y20245D1*
X11004Y20332D1*
X10938Y20433D1*
X10876Y20339D1*
X10788Y20251D1*
X10683Y20184D1*
X10566Y20142D1*
X10442Y20127D1*
X10318Y20140D1*
X10200Y20180D1*
X10093Y20245D1*
X9998Y20341D1*
X9997Y20127D1*
X9150D1*
X9152Y19878D1*
X10129Y18903D1*
X13878Y18902D1*
X13932Y18936D1*
X14049Y18980D1*
X14172Y18997D1*
X14296Y18986D1*
X14360Y18966D1*
X14362Y19105D1*
X14269Y19234D1*
X14230Y19352D1*
X14224Y19476D1*
X14251Y19598D1*
X14309Y19708D1*
X14395Y19799D1*
X14501Y19863D1*
X14621Y19897D1*
X14746Y19898D1*
X14866Y19866D1*
X14974Y19803D1*
X15061Y19714D1*
X15121Y19604D1*
X15152Y19437D1*
X15135Y19314D1*
X15086Y19199D1*
X15011Y19104D1*
X15012Y18972D1*
X15172Y18997D1*
X15296Y18986D1*
X15415Y18949D1*
X15523Y18885D1*
X15614Y18800D1*
X15688Y18686D1*
X15742Y18777D1*
X15828Y18867D1*
X15932Y18936D1*
X16049Y18980D1*
X16172Y18997D1*
X16296Y18986D1*
X16415Y18949D1*
X16523Y18885D1*
X16614Y18800D1*
X16688Y18686D1*
X16742Y18777D1*
X16828Y18867D1*
X16864Y18891D1*
X16862Y19480D1*
X16769Y19609D1*
X16730Y19727D1*
X16724Y19851D1*
X16751Y19973D1*
X16809Y20083D1*
X16895Y20174D1*
X17001Y20238D1*
X17121Y20272D1*
X17246Y20273D1*
X17366Y20241D1*
X17474Y20178D1*
X17561Y20089D1*
X17621Y19979D1*
X17652Y19812D1*
X17635Y19689D1*
X17586Y19574D1*
X17511Y19479D1*
X17512Y18894D1*
X17614Y18800D1*
X17688Y18686D1*
X17742Y18777D1*
X17828Y18867D1*
X17864Y18891D1*
X17862Y19062D1*
X17886Y19184D1*
X17957Y19292D1*
X18794Y20129D1*
X18127Y20127D1*
Y21247D1*
X18365D1*
X18362Y21312D1*
X18386Y21434D1*
X18457Y21542D1*
X18863Y21948D1*
X18862Y22855D1*
X18769Y22984D1*
X18729Y23129D1*
X18568Y23140D1*
X18450Y23180D1*
X18373Y23226D1*
X17655Y23227D1*
X17652Y23071D1*
X17719Y22976D1*
X17767Y22861D1*
X17792Y22687D1*
X17779Y22563D1*
X7994Y24678D2*
X7947Y24433D1*
X7854Y24202D1*
X7718Y23992D1*
X7545Y23812D1*
X7342Y23668D1*
X7114Y23565D1*
X6871Y23508D1*
X6622Y23498D1*
X6375Y23535D1*
X6140Y23619D1*
X5925Y23745D1*
X5738Y23911D1*
X5585Y24108D1*
X5473Y24332D1*
X5406Y24572D1*
X5386Y24821D1*
X5413Y25069D1*
X5487Y25307D1*
X5604Y25527D1*
X5762Y25721D1*
X5953Y25881D1*
X6172Y26002D1*
X6409Y26079D1*
X6657Y26110D1*
X6906Y26093D1*
X7147Y26029D1*
X7372Y25920D1*
X7572Y25771D1*
X7740Y25586D1*
X7870Y25373D1*
X7956Y25139D1*
X7997Y24893D1*
X7994Y24678D1*
X38191D2*
X38144Y24433D1*
X38051Y24202D1*
X37915Y23992D1*
X37742Y23812D1*
X37538Y23668D1*
X37311Y23565D1*
X37068Y23508D1*
X36818Y23498D1*
X36572Y23535D1*
X36336Y23619D1*
X36121Y23745D1*
X35934Y23911D1*
X35782Y24108D1*
X35670Y24332D1*
X35603Y24572D1*
X35582Y24821D1*
X35610Y25069D1*
X35683Y25307D1*
X35801Y25527D1*
X35959Y25721D1*
X36150Y25881D1*
X36369Y26002D1*
X36606Y26079D1*
X36854Y26110D1*
X37103Y26093D1*
X37344Y26029D1*
X37569Y25920D1*
X37769Y25771D1*
X37937Y25586D1*
X38066Y25373D1*
X38153Y25139D1*
X38194Y24893D1*
X38191Y24678D1*
X10927Y16857D2*
X10901Y16880D1*
X10831Y16984D1*
X10792Y17102D1*
X10786Y17226D1*
X10813Y17348D1*
X10872Y17458D1*
X10957Y17549D1*
X11064Y17613D1*
X11184Y17647D1*
X11308Y17648D1*
X11429Y17616D1*
X11536Y17553D1*
X11623Y17464D1*
X11683Y17354D1*
X11714Y17187D1*
X11698Y17064D1*
X11649Y16949D1*
X11574Y16854D1*
X25833Y21687D2*
D16*
X26437D1*
X12437Y14937D2*
Y14333D1*
X11833Y14937D2*
X12437D1*
X31937Y25791D2*
Y24583D1*
Y25187D2*
X32541D1*
X17186Y21687D2*
Y21083D1*
X16582Y21687D2*
X17791D1*
X7936D2*
Y21083D1*
X7332Y21687D2*
X7936D1*
X29187Y12997D2*
Y11877D1*
Y12437D2*
X29747D1*
X15437Y21247D2*
Y20127D1*
Y20687D2*
X15997D1*
X34687Y21247D2*
Y20127D1*
Y20687D2*
X35247D1*
X24687Y21247D2*
Y20127D1*
Y20687D2*
X25247D1*
D17*
X26437Y21687D3*
X26438Y22687D3*
X12437Y14937D3*
X12438Y15937D3*
X31937Y25187D3*
X30937Y25188D3*
X17187Y22687D3*
X17186Y21687D3*
X7937Y22687D3*
X7936Y21687D3*
D18*
X33812Y6187D3*
X32812D3*
X31812D3*
X30812D3*
X29812D3*
X28812D3*
X27812D3*
X26812D3*
X25812D3*
X24812D3*
X23812D3*
X22812D3*
X21812D3*
X20812D3*
X19812D3*
X18812D3*
X17812D3*
X16812D3*
X15812D3*
X14812D3*
X13812D3*
X12812D3*
X11812D3*
X10812D3*
X9812D3*
D17*
X27687Y25187D3*
X29687D3*
D19*
X14187Y12437D3*
D20*
X15187D3*
X16187D3*
X17187D3*
X18187D3*
X19187D3*
X20187D3*
X21187D3*
X22187D3*
X23187D3*
X24187D3*
X25187D3*
X26187D3*
X27187D3*
X28187D3*
X29187D3*
Y18437D3*
X28187D3*
X27187D3*
X26187D3*
X25187D3*
X24187D3*
X23187D3*
X22187D3*
X21187D3*
X20187D3*
X19187D3*
X18187D3*
X17187D3*
X16187D3*
X15187D3*
X14187D3*
D19*
X9437Y20687D3*
D20*
X10437D3*
X11437D3*
X12437D3*
X13437D3*
X14437D3*
X15437D3*
Y23687D3*
X14437D3*
X13437D3*
X12437D3*
X11437D3*
X10437D3*
X9437D3*
D19*
X27687Y20687D3*
D20*
X28687D3*
X29687D3*
X30687D3*
X31687D3*
X32687D3*
X33687D3*
X34687D3*
Y23687D3*
X33687D3*
X32687D3*
X31687D3*
X30687D3*
X29687D3*
X28687D3*
X27687D3*
D19*
X18687Y20687D3*
D20*
X19687D3*
X20687D3*
X21687D3*
X22687D3*
X23687D3*
X24687D3*
Y23687D3*
X23687D3*
X22687D3*
X21687D3*
X20687D3*
X19687D3*
X18687D3*
M02*
