G04 DipTrace 2.4.0.2*
%INTopMask.gbr*%
%MOIN*%
%ADD22C,0.1575*%
%ADD27C,0.0669*%
%ADD29R,0.0669X0.0669*%
%ADD31R,0.0709X0.4213*%
%ADD33C,0.0759*%
%FSLAX44Y44*%
G04*
G70*
G90*
G75*
G01*
%LNTopMask*%
%LPD*%
D33*
X26437Y21687D3*
X26438Y22687D3*
X12437Y14937D3*
X12438Y15937D3*
X31937Y25187D3*
X30937Y25188D3*
X17187Y22687D3*
X17186Y21687D3*
X7937Y22687D3*
X7936Y21687D3*
D31*
X33812Y6187D3*
X32812D3*
X31812D3*
X30812D3*
X29812D3*
X28812D3*
X27812D3*
X26812D3*
X25812D3*
X24812D3*
X23812D3*
X22812D3*
X21812D3*
X20812D3*
X19812D3*
X18812D3*
X17812D3*
X16812D3*
X15812D3*
X14812D3*
X13812D3*
X12812D3*
X11812D3*
X10812D3*
X9812D3*
D33*
X27687Y25187D3*
X29687D3*
D29*
X14187Y12437D3*
D27*
X15187D3*
X16187D3*
X17187D3*
X18187D3*
X19187D3*
X20187D3*
X21187D3*
X22187D3*
X23187D3*
X24187D3*
X25187D3*
X26187D3*
X27187D3*
X28187D3*
X29187D3*
Y18437D3*
X28187D3*
X27187D3*
X26187D3*
X25187D3*
X24187D3*
X23187D3*
X22187D3*
X21187D3*
X20187D3*
X19187D3*
X18187D3*
X17187D3*
X16187D3*
X15187D3*
X14187D3*
D29*
X9437Y20687D3*
D27*
X10437D3*
X11437D3*
X12437D3*
X13437D3*
X14437D3*
X15437D3*
Y23687D3*
X14437D3*
X13437D3*
X12437D3*
X11437D3*
X10437D3*
X9437D3*
D29*
X27687Y20687D3*
D27*
X28687D3*
X29687D3*
X30687D3*
X31687D3*
X32687D3*
X33687D3*
X34687D3*
Y23687D3*
X33687D3*
X32687D3*
X31687D3*
X30687D3*
X29687D3*
X28687D3*
X27687D3*
D29*
X18687Y20687D3*
D27*
X19687D3*
X20687D3*
X21687D3*
X22687D3*
X23687D3*
X24687D3*
Y23687D3*
X23687D3*
X22687D3*
X21687D3*
X20687D3*
X19687D3*
X18687D3*
D22*
X6693Y24803D3*
X36890D3*
M02*
